<mxfile host="app.diagrams.net" modified="2024-01-08T03:42:02.165Z" agent="Mozilla/5.0 (Windows NT 10.0; Win64; x64) AppleWebKit/537.36 (KHTML, like Gecko) Chrome/120.0.0.0 Safari/537.36" etag="CcHq9a6sjifQvv2ekeDL" version="22.1.17" type="github">
  <diagram name="第 1 页" id="QymJO4du4DGWbVX0c9sF">
    <mxGraphModel dx="1562" dy="818" grid="1" gridSize="10" guides="1" tooltips="1" connect="1" arrows="1" fold="1" page="1" pageScale="1" pageWidth="827" pageHeight="1169" math="0" shadow="0">
      <root>
        <mxCell id="0" />
        <mxCell id="1" parent="0" />
        <mxCell id="pTQjmUqPjQqW_ZppAOSJ-2" style="edgeStyle=orthogonalEdgeStyle;rounded=0;orthogonalLoop=1;jettySize=auto;html=1;startArrow=dash;startFill=0;" parent="1" target="pTQjmUqPjQqW_ZppAOSJ-1" edge="1">
          <mxGeometry relative="1" as="geometry">
            <mxPoint x="280" y="310" as="sourcePoint" />
          </mxGeometry>
        </mxCell>
        <mxCell id="pTQjmUqPjQqW_ZppAOSJ-5" value="&lt;font style=&quot;font-size: 20px;&quot; face=&quot;Times New Roman&quot;&gt;11&lt;/font&gt;" style="edgeLabel;html=1;align=center;verticalAlign=bottom;resizable=0;points=[];labelPosition=center;verticalLabelPosition=top;" parent="pTQjmUqPjQqW_ZppAOSJ-2" vertex="1" connectable="0">
          <mxGeometry x="0.0639" relative="1" as="geometry">
            <mxPoint as="offset" />
          </mxGeometry>
        </mxCell>
        <mxCell id="pTQjmUqPjQqW_ZppAOSJ-3" style="edgeStyle=orthogonalEdgeStyle;rounded=0;orthogonalLoop=1;jettySize=auto;html=1;exitX=0.5;exitY=1;exitDx=0;exitDy=0;entryX=0.5;entryY=1;entryDx=0;entryDy=0;startArrow=dash;startFill=0;" parent="1" target="pTQjmUqPjQqW_ZppAOSJ-1" edge="1">
          <mxGeometry relative="1" as="geometry">
            <mxPoint x="390" y="400" as="sourcePoint" />
          </mxGeometry>
        </mxCell>
        <mxCell id="pTQjmUqPjQqW_ZppAOSJ-6" value="&lt;font style=&quot;font-size: 20px;&quot; face=&quot;Times New Roman&quot;&gt;10&lt;/font&gt;" style="edgeLabel;html=1;align=left;verticalAlign=middle;resizable=0;points=[];labelPosition=right;verticalLabelPosition=middle;" parent="pTQjmUqPjQqW_ZppAOSJ-3" vertex="1" connectable="0">
          <mxGeometry x="-0.0098" relative="1" as="geometry">
            <mxPoint as="offset" />
          </mxGeometry>
        </mxCell>
        <mxCell id="pTQjmUqPjQqW_ZppAOSJ-4" style="edgeStyle=orthogonalEdgeStyle;rounded=0;orthogonalLoop=1;jettySize=auto;html=1;startArrow=dash;startFill=0;" parent="1" source="pTQjmUqPjQqW_ZppAOSJ-1" edge="1">
          <mxGeometry relative="1" as="geometry">
            <mxPoint x="480" y="310" as="targetPoint" />
          </mxGeometry>
        </mxCell>
        <mxCell id="pTQjmUqPjQqW_ZppAOSJ-8" value="&lt;font style=&quot;font-size: 20px;&quot; face=&quot;Times New Roman&quot;&gt;10&lt;/font&gt;" style="edgeLabel;html=1;align=center;verticalAlign=bottom;resizable=0;points=[];labelPosition=center;verticalLabelPosition=top;" parent="pTQjmUqPjQqW_ZppAOSJ-4" vertex="1" connectable="0">
          <mxGeometry x="0.0886" y="-1" relative="1" as="geometry">
            <mxPoint as="offset" />
          </mxGeometry>
        </mxCell>
        <mxCell id="pTQjmUqPjQqW_ZppAOSJ-1" value="&lt;font style=&quot;font-size: 20px;&quot; face=&quot;Times New Roman&quot;&gt;complex multiplier&lt;/font&gt;" style="shape=sumEllipse;perimeter=ellipsePerimeter;whiteSpace=wrap;html=1;backgroundOutline=1;labelPosition=center;verticalLabelPosition=top;align=center;verticalAlign=bottom;" parent="1" vertex="1">
          <mxGeometry x="350" y="270" width="80" height="80" as="geometry" />
        </mxCell>
        <mxCell id="pTQjmUqPjQqW_ZppAOSJ-10" style="edgeStyle=orthogonalEdgeStyle;rounded=0;orthogonalLoop=1;jettySize=auto;html=1;entryX=0.5;entryY=1;entryDx=0;entryDy=0;strokeWidth=2;fillColor=#f8cecc;strokeColor=#b85450;" parent="1" target="pTQjmUqPjQqW_ZppAOSJ-9" edge="1">
          <mxGeometry relative="1" as="geometry">
            <mxPoint x="465" y="370" as="sourcePoint" />
          </mxGeometry>
        </mxCell>
        <mxCell id="pTQjmUqPjQqW_ZppAOSJ-9" value="" style="ellipse;whiteSpace=wrap;html=1;aspect=fixed;fillColor=none;strokeColor=#b85450;gradientColor=default;strokeWidth=2;" parent="1" vertex="1">
          <mxGeometry x="440" y="270" width="50" height="50" as="geometry" />
        </mxCell>
        <mxCell id="pTQjmUqPjQqW_ZppAOSJ-11" value="&lt;font style=&quot;font-size: 20px;&quot; face=&quot;Times New Roman&quot;&gt;truncation&lt;/font&gt;" style="text;html=1;align=center;verticalAlign=middle;resizable=0;points=[];autosize=1;strokeColor=none;fillColor=none;" parent="1" vertex="1">
          <mxGeometry x="420" y="370" width="100" height="40" as="geometry" />
        </mxCell>
        <mxCell id="pTQjmUqPjQqW_ZppAOSJ-12" value="&lt;font style=&quot;font-size: 20px;&quot; face=&quot;Times New Roman&quot;&gt;butterfly output &lt;br&gt;from the last stage&lt;/font&gt;" style="text;html=1;align=center;verticalAlign=middle;resizable=0;points=[];autosize=1;strokeColor=none;fillColor=none;" parent="1" vertex="1">
          <mxGeometry x="110" y="280" width="170" height="60" as="geometry" />
        </mxCell>
        <mxCell id="pTQjmUqPjQqW_ZppAOSJ-13" value="&lt;font style=&quot;font-size: 20px;&quot; face=&quot;Times New Roman&quot;&gt;butterfly input &lt;br&gt;&amp;nbsp;for the next stage&lt;/font&gt;" style="text;html=1;align=center;verticalAlign=middle;resizable=0;points=[];autosize=1;strokeColor=none;fillColor=none;" parent="1" vertex="1">
          <mxGeometry x="480" y="280" width="170" height="60" as="geometry" />
        </mxCell>
        <mxCell id="pTQjmUqPjQqW_ZppAOSJ-14" value="&lt;font style=&quot;font-size: 20px;&quot; face=&quot;Times New Roman&quot;&gt;twiddle factor&lt;/font&gt;" style="text;html=1;align=center;verticalAlign=middle;resizable=0;points=[];autosize=1;strokeColor=none;fillColor=none;" parent="1" vertex="1">
          <mxGeometry x="320" y="403" width="140" height="40" as="geometry" />
        </mxCell>
      </root>
    </mxGraphModel>
  </diagram>
</mxfile>
